<mxfile host="app.diagrams.net" agent="Mozilla/5.0 (Windows NT 10.0; Win64; x64) AppleWebKit/537.36 (KHTML, like Gecko) Chrome/132.0.0.0 Safari/537.36" version="26.0.8">
  <diagram name="ページ1" id="0F_WfHpvaV1-jA4kWRQt">
    <mxGraphModel dx="1500" dy="746" grid="1" gridSize="10" guides="1" tooltips="1" connect="1" arrows="1" fold="1" page="1" pageScale="1" pageWidth="827" pageHeight="1169" math="0" shadow="0">
      <root>
        <mxCell id="0" />
        <mxCell id="1" parent="0" />
        <mxCell id="swcJXROrzSy28jld5uYv-3" value="&lt;font style=&quot;vertical-align: inherit;&quot;&gt;&lt;font style=&quot;vertical-align: inherit;&quot;&gt;AWSクラウド&lt;/font&gt;&lt;/font&gt;" style="sketch=0;outlineConnect=0;gradientColor=none;html=1;whiteSpace=wrap;fontSize=12;fontStyle=0;shape=mxgraph.aws4.group;grIcon=mxgraph.aws4.group_aws_cloud;strokeColor=#AAB7B8;fillColor=none;verticalAlign=top;align=left;spacingLeft=30;fontColor=#AAB7B8;dashed=0;noLabel=0;" parent="1" vertex="1">
          <mxGeometry x="420" y="140" width="1210" height="930" as="geometry" />
        </mxCell>
        <mxCell id="A79HWYQ3Ffc1rzO4Q38f-1" value="VPC" style="sketch=0;outlineConnect=0;gradientColor=none;html=1;whiteSpace=wrap;fontSize=12;fontStyle=0;shape=mxgraph.aws4.group;grIcon=mxgraph.aws4.group_vpc;strokeColor=#879196;fillColor=none;verticalAlign=top;align=left;spacingLeft=30;fontColor=#879196;dashed=0;" vertex="1" parent="1">
          <mxGeometry x="560" y="180" width="1010" height="840" as="geometry" />
        </mxCell>
        <mxCell id="yrDYeZmdttKb9LYMfDCr-5" value="End&amp;nbsp;&lt;span style=&quot;background-color: transparent; color: light-dark(rgb(35, 47, 62), rgb(189, 199, 212));&quot;&gt;User&lt;/span&gt;" style="sketch=0;outlineConnect=0;fontColor=#232F3E;gradientColor=none;fillColor=#232F3D;strokeColor=none;dashed=0;verticalLabelPosition=bottom;verticalAlign=top;align=center;html=1;fontSize=12;fontStyle=0;aspect=fixed;pointerEvents=1;shape=mxgraph.aws4.client;" parent="1" vertex="1">
          <mxGeometry x="80" y="497" width="78" height="76" as="geometry" />
        </mxCell>
        <mxCell id="A79HWYQ3Ffc1rzO4Q38f-3" value="外部IdP" style="verticalLabelPosition=bottom;sketch=0;html=1;fillColor=#282828;strokeColor=none;verticalAlign=top;pointerEvents=1;align=center;shape=mxgraph.cisco_safe.people_places_things_icons.icon2;" vertex="1" parent="1">
          <mxGeometry x="300" y="294.5" width="50" height="41" as="geometry" />
        </mxCell>
        <mxCell id="A79HWYQ3Ffc1rzO4Q38f-5" value="" style="endArrow=classic;html=1;rounded=0;" edge="1" parent="1" source="A79HWYQ3Ffc1rzO4Q38f-15">
          <mxGeometry width="50" height="50" relative="1" as="geometry">
            <mxPoint x="560" y="315" as="sourcePoint" />
            <mxPoint x="360" y="315" as="targetPoint" />
          </mxGeometry>
        </mxCell>
        <mxCell id="A79HWYQ3Ffc1rzO4Q38f-50" style="edgeStyle=orthogonalEdgeStyle;rounded=0;orthogonalLoop=1;jettySize=auto;html=1;exitX=1;exitY=0.7;exitDx=0;exitDy=0;exitPerimeter=0;" edge="1" parent="1" source="A79HWYQ3Ffc1rzO4Q38f-7" target="A79HWYQ3Ffc1rzO4Q38f-15">
          <mxGeometry relative="1" as="geometry" />
        </mxCell>
        <mxCell id="A79HWYQ3Ffc1rzO4Q38f-7" value="Internet" style="outlineConnect=0;dashed=0;verticalLabelPosition=bottom;verticalAlign=top;align=center;html=1;shape=mxgraph.aws3.internet_2;fillColor=#D2D3D3;gradientColor=none;" vertex="1" parent="1">
          <mxGeometry x="285.25" y="497" width="79.5" height="54" as="geometry" />
        </mxCell>
        <mxCell id="A79HWYQ3Ffc1rzO4Q38f-8" value="" style="endArrow=classic;html=1;rounded=0;entryX=0;entryY=0.7;entryDx=0;entryDy=0;entryPerimeter=0;" edge="1" parent="1" target="A79HWYQ3Ffc1rzO4Q38f-7">
          <mxGeometry width="50" height="50" relative="1" as="geometry">
            <mxPoint x="170" y="535" as="sourcePoint" />
            <mxPoint x="220" y="490" as="targetPoint" />
          </mxGeometry>
        </mxCell>
        <mxCell id="A79HWYQ3Ffc1rzO4Q38f-10" value="Private subnet" style="points=[[0,0],[0.25,0],[0.5,0],[0.75,0],[1,0],[1,0.25],[1,0.5],[1,0.75],[1,1],[0.75,1],[0.5,1],[0.25,1],[0,1],[0,0.75],[0,0.5],[0,0.25]];outlineConnect=0;gradientColor=none;html=1;whiteSpace=wrap;fontSize=12;fontStyle=0;container=1;pointerEvents=0;collapsible=0;recursiveResize=0;shape=mxgraph.aws4.group;grIcon=mxgraph.aws4.group_security_group;grStroke=0;strokeColor=#00A4A6;fillColor=#E6F6F7;verticalAlign=top;align=left;spacingLeft=30;fontColor=#147EBA;dashed=0;" vertex="1" parent="1">
          <mxGeometry x="1150" y="300" width="410" height="650" as="geometry" />
        </mxCell>
        <mxCell id="A79HWYQ3Ffc1rzO4Q38f-20" value="Amazon RDS&lt;div&gt;&lt;div&gt;OR&lt;/div&gt;&lt;/div&gt;" style="outlineConnect=0;dashed=0;verticalLabelPosition=bottom;verticalAlign=top;align=center;html=1;shape=mxgraph.aws3.rds;fillColor=#2E73B8;gradientColor=none;" vertex="1" parent="A79HWYQ3Ffc1rzO4Q38f-10">
          <mxGeometry x="277" y="183" width="72" height="81" as="geometry" />
        </mxCell>
        <mxCell id="A79HWYQ3Ffc1rzO4Q38f-11" value="Public subnet" style="points=[[0,0],[0.25,0],[0.5,0],[0.75,0],[1,0],[1,0.25],[1,0.5],[1,0.75],[1,1],[0.75,1],[0.5,1],[0.25,1],[0,1],[0,0.75],[0,0.5],[0,0.25]];outlineConnect=0;gradientColor=none;html=1;whiteSpace=wrap;fontSize=12;fontStyle=0;container=1;pointerEvents=0;collapsible=0;recursiveResize=0;shape=mxgraph.aws4.group;grIcon=mxgraph.aws4.group_security_group;grStroke=0;strokeColor=#7AA116;fillColor=#F2F6E8;verticalAlign=top;align=left;spacingLeft=30;fontColor=#248814;dashed=0;" vertex="1" parent="1">
          <mxGeometry x="710" y="300" width="420" height="660" as="geometry" />
        </mxCell>
        <mxCell id="A79HWYQ3Ffc1rzO4Q38f-24" value="" style="whiteSpace=wrap;html=1;aspect=fixed;" vertex="1" parent="A79HWYQ3Ffc1rzO4Q38f-11">
          <mxGeometry x="140" y="190" width="220" height="220" as="geometry" />
        </mxCell>
        <UserObject label="&lt;font style=&quot;color: rgb(102, 178, 255);&quot;&gt;&lt;b&gt;AWS Ampl&lt;span style=&quot;background-color: transparent;&quot;&gt;ify&lt;/span&gt;&lt;/b&gt;&lt;/font&gt;" link="https://qiita.com/t-kurasawa/items/0d688b85ef7f9136e23b" linkTarget="_blank" id="A79HWYQ3Ffc1rzO4Q38f-22">
          <mxCell style="sketch=0;points=[[0,0,0,0,0],[0,0.25,0,0,0],[0,0.5,0,0,0],[0,0.75,0,0,0],[0,1,0,0,0],[0.25,0,0,0,0],[0.25,1,0,0,0],[0.5,0,0,0,0],[0.5,1,0,0,0],[0.75,0,0,0,0],[0.75,1,0,0,0],[1,0,0,0,0],[1,0.25,0,0,0],[1,0.5,0,0,0],[1,0.75,0,0,0],[1,1,0,0,0]];outlineConnect=0;fontColor=#232F3E;fillColor=#DD344C;strokeColor=#ffffff;dashed=0;verticalLabelPosition=bottom;verticalAlign=top;align=center;html=1;fontSize=12;fontStyle=0;aspect=fixed;shape=mxgraph.aws4.resourceIcon;resIcon=mxgraph.aws4.amplify;" vertex="1" parent="A79HWYQ3Ffc1rzO4Q38f-11">
            <mxGeometry x="140" y="190" width="78" height="78" as="geometry" />
          </mxCell>
        </UserObject>
        <mxCell id="A79HWYQ3Ffc1rzO4Q38f-16" value="Next.js" style="shape=image;verticalLabelPosition=bottom;labelBackgroundColor=default;verticalAlign=top;aspect=fixed;imageAspect=0;image=https://images.ctfassets.net/fdt52x6qf2de/1MVOW9GweIGspjGTSrYgBk/7c3b3cf133c4db02b5cdd7559c3e3c93/next-js.svg;" vertex="1" parent="A79HWYQ3Ffc1rzO4Q38f-11">
          <mxGeometry x="210" y="300" width="80" height="80" as="geometry" />
        </mxCell>
        <mxCell id="A79HWYQ3Ffc1rzO4Q38f-29" style="edgeStyle=orthogonalEdgeStyle;rounded=0;orthogonalLoop=1;jettySize=auto;html=1;exitX=1;exitY=0.5;exitDx=0;exitDy=0;exitPerimeter=0;" edge="1" parent="1" source="A79HWYQ3Ffc1rzO4Q38f-13" target="A79HWYQ3Ffc1rzO4Q38f-25">
          <mxGeometry relative="1" as="geometry" />
        </mxCell>
        <mxCell id="A79HWYQ3Ffc1rzO4Q38f-13" value="Lambda" style="outlineConnect=0;dashed=0;verticalLabelPosition=bottom;verticalAlign=top;align=center;html=1;shape=mxgraph.aws3.lambda_function;fillColor=#F58534;gradientColor=none;" vertex="1" parent="1">
          <mxGeometry x="1110" y="564" width="69" height="72" as="geometry" />
        </mxCell>
        <mxCell id="A79HWYQ3Ffc1rzO4Q38f-47" style="edgeStyle=orthogonalEdgeStyle;rounded=0;orthogonalLoop=1;jettySize=auto;html=1;exitX=1;exitY=0.5;exitDx=0;exitDy=0;exitPerimeter=0;entryX=0;entryY=0.5;entryDx=0;entryDy=0;" edge="1" parent="1" source="A79HWYQ3Ffc1rzO4Q38f-14" target="A79HWYQ3Ffc1rzO4Q38f-24">
          <mxGeometry relative="1" as="geometry" />
        </mxCell>
        <mxCell id="A79HWYQ3Ffc1rzO4Q38f-14" value="Application&lt;div&gt;Load Balancer&lt;/div&gt;" style="outlineConnect=0;dashed=0;verticalLabelPosition=bottom;verticalAlign=top;align=center;html=1;shape=mxgraph.aws3.application_load_balancer;fillColor=#F58534;gradientColor=none;" vertex="1" parent="1">
          <mxGeometry x="740" y="501" width="69" height="72" as="geometry" />
        </mxCell>
        <mxCell id="A79HWYQ3Ffc1rzO4Q38f-19" value="" style="shape=image;verticalLabelPosition=bottom;labelBackgroundColor=default;verticalAlign=top;aspect=fixed;imageAspect=0;image=data:image/png,iVBORw0KGgoAAAANSUhEUgAAAZ0AAAB6CAMAAABTN34eAAAAjVBMVEUsc+j///8pcuhMhuvm7PsIaOcib+c4e+klcOh3oO/t8/0ebef4+/5lk+30+P4Ya+eTs/JEg+tQieuMq/CXtvLU3/kzeOne6fuwx/UAZeYzeurJ2fjq8f2rxPWduvPY4/q6zvalv/SCqPDA0fdxnO5ekOxznu/E1vh+pO9Kg+pbjOsAX+Zol+21yvWLr/Gw/CHCAAAP00lEQVR4nO1daXuiOhTGKJgaSqpVtMXWajfbq/7/n3fZknOyATOjz2Qs7zeVLedNzh4Mhj8M47TE+G8/RycE5KchKPG3n6Ibgh49evTo0aPHxUFDr/Gz/QH6Nhl5jMXjj6Ynuhn4jMm4Z8df9Oz4jJ4dn9Gz4zN6dnxGz47P6NnxGT07PqNnx2f07PiMnh2f0bPjM3p2fEbPjs/o2fEZPTs+o2fHZ/Ts+IxGdgjjNVgLh4RLsPPK77L4h9kh46eVQNRID0mP8sjtv0RPN3Zeb/YSNy/Ow7Z3Dsy3x2yd2E55goNef5WdGbpM2DRIMkZXbDzSM3RjZ8giCTZ0H8aZCzwMpzfHiXHKuzwlvP9ldmI48NC0JDA766tjZ4RHROjGddysUb/QiJPdSDvllson+SN2koA6D7xydubKxGR3v8dOUNhxtltfhJ3BJ2+47VWzM1XmJR27jps1zN8ahEXHi7Az2LnpuWp2NtqA2OL32clFFZ4uwo42h5Qjr5mdU6Sds3Ox0y105Oj8M7KzdLrV18xOrPcyE/Jn7AQcVs8Z2RlsXbrtmtnJjPGwTwc7oFtohEB1EYfyAudkZ3CIHEdeMTt7I5SI3hzsSFHSrxvAxzQKmWIUSCQEe1Z21o9203PF7CSBEBAMnety0dmJTsoP8Wg75ljOTJies7Iz+LTHpFfMzovQ5nSYirPY0Xqok50CqxSLLhxdgp3ByWp6rpidN6HMw823ECV9t7PTKOo1zrYIv+/M7CRWp/562VmLlwXkQeizFG9oZswGytqxiTpGVltYnjOzM9jY3m1wvew8CV2RSw+Gzp5+g53BeoxM18tF2LG61e3sUBqxiLHCvbx4uY+Q3KFl+c3a79XKjhRfmCHxE2uiuo0dLDq2vww7NreaPDaxQwjj4+/D/jS/2328DwOuRLWEyx3G3NCaDH4znpPbfiOU8cfZ4WZ3l9/rMEw5M6INjDZ2ZABO0lwWcyndUE82d2JnAouHTuPLsLNODSE2sUMYHZ4WoKjj5etbCvIk6etC4ku7Mltt5G/6OuBw3iYVMmTp7XYBkotH2d2MOoK0UiYt7EhTU5rxjZxW7Pl32BncwKOEyWXYGbwauq2BHUrfzKzhaDuVtXCWwfcfkXZZZH2/VeZIYN6SpSfLnF4cImeCsIWdeIYVW/5Rxj5Ty9HNPluBJ3DbwrJMdCZ2Elyw3elRj5MdwmaOjO6W1A/GUGygVb3pLTrh2f3bqpwuVC+eSCyGrtJhCzsbcV6dW7sDr81Sg2tfOwuQDS8r1edi5z808niqJwYd7NBo7hz5cloNlXxZpFGB4bOzyPlbqTCi1JH+KnBvmq0u7JzE89RGHJ7PEm92YGcEY+Cr4oszsRM/fKOz9JKHgx0SIK1lIH5n1UFLOFd9mhCvuyRVfuOIiyLZEn05Fk6FZzs9zewk0g7WeUtQbaWXoKEDOzItFLBt8cW52Ak5nsjPqumxs0MDZwm+QhU9c6Q036lyVSXoUw3PA/S4FHOFBI3kGIqxEzuZGCVh9TcnUG3mxGu3O5djR1W1M0XPWOMdwl1FRPUq0Qd8oVS6ooNysGKUsFkupspDy0QwPI4u7Nww/TBQGrWuU0bTvnZgCOfVbGFAx7gJRNEU1rUTuju/5N0L55yk8IXiDnLVbV0ozCHh5AtOq1dOsuPT6lUlDJLNXdkB2XDRbJYMpWojRoNaOzuoN6PSzOdjR50ur4prZmFHm1zJ8TAN0++5KrLXYjJFsMZGOKrR/KIEFylRLiXJnfMHLKpsFnLOGOd0jr+eW3RbIzswVUL5Hag2bky+dnbA5wseSk18RnbU1XCDBounf80OCbBkkhNnedRRRPK3isyLxEOlgqvjhvA45FGbnbfI8CDmciEq9bB9KI4jjKAOy6Vl8TSyI5Mi6PKg2swaXDs7YDpJcM5cQckOCVCwF4+xIOH7mp1Kr9bIAlCEUYQVVuGjUuQOIutgDB8bHg5f30fKPL7Di5riBppvMyhtYmcknUR0+US2vpBI90Na2clgALSyqedkJ2A4PNxA67vJjtL1dVQSaIRjnZc/HyFwH8QAWlIVkOFBhMb5cuPglGuOd4SY15trWthZgceGDC5SbXqiupUd5JHWqaCzsqMaalDkJjtYtAt9BwMe15EryRwUTUvlJZ4igSQiashcc6WUPNJCMbR4XszsehM7cqkpviM8oJLJKNDGDnbq6zTqedkhFHvJ7zLRYbCD61NGwY4wUAqTXF8iWU+k6SeP4u4yLIfsOAd7UkxxpOcMdraTdY0X0y1oYGcJ1RxsbmPo6mNL9YwWdo4oNV8rtjOzE9AhMtUjka022MGmZGVOWZxby0WOgxe5+qXgEiKYlqWw4AHIL9I4HB4q0QZE0vGjgDnEBnbkTCdU8U7u5RTRE9WN7CT3uG4iYtkzswPtJAWOzMEOUmyxxRjjhr1CChzWkhy89JmzB5G02YhaDUpQl+qOI2/lqOVsGl9Y38COzCVqGgz626iWw2/o+phsx1i9U7H35tzsEGWd181eBjscHN61LYUSglIoRouuKY2DPOROdh5Lh0l3cTlOqzwFzJwPDrjZ2cASUTtwUG8oVwMyxM5+tARk249ULSxKk3pudgL6iDzJOk9oZHIgfMulb/nbBeiGHExy9hgIaaQvx/ibScUnGmRQLFpm/NRdG6P5NOJmB+avsSN9M0I0zxmpNnWJIPsa4ZdK56Ge+ixcPu7Z2VFdmKy8sb52sCFZkdQERRFEPheRphPrQ8ptwiCyECYMZfDK8em7NuLN08dXUSH//b4C6Zgb7VFItX0pFqlrHzWKS87PjhqIlLV2fe1gAhPre7BhWEW8gjVdHY9KrztXdVLxiTI/+GjrSoq2nN7ydTdMGf+9vgIIHI3WwhhyDopG7bZDJL/nEMR6AXYIw/r2PTLXjq025UJcPKGuqhBfuWmTKTuhSKEl5rN6LiVDi7DOnt+DhsYPJzuye9pSmtiBalNO77R2CPtGC+4C7KiKpKhZ6OwYYX4TCmOC/KIq3JOZu4IQSONVbRNI3wtJMUfnefFAx1n0y5VraSnocL1UMQLHnoxxBaoLO4QpLFyCHc2tDv+MnX0hYNBVSWkspNiWhShkpqYyPEzGolCs5K49T+VFPn6xco0qGeb/WKD4jeN97O3sEDZWi3YXYSd4wDe5YQY7OAXahlKJQKmxio9kErVMvMnrLctFEEkrNQJviA9tPWYCi7G1AdzFjmsrjHE+9pDa2KE82Gr3uQw7SmIwSekfrZ1S/lAXLz3WByHq0omWQigrDCgWxXkIyt0tJgNLI1EpEzs78UM7MZUcUjQlnF5B0ZzKwvDd3LpwGXaCCAfQiwedHVszXqPYkKEv8qLS0lTPR6TiK6hEE/ZNmeMsmDesH3OblJOdY8P+chU4oYvWTvSAwdLv+6eFzW+5EDtBiPPnc5SZKdlB0eFqPG1G7RNLT2aEy7B1SlgG12VKW956om00JowNn53dDJa57WDHknxyACcUUddHV5/1UuwQjjO0aCWVHjVq5HjitBl1CCMjlqKsx4USqGu9UlWOGEEFh4W5HAiLgtttZtvCkXXNUU+6KrZCaYEYPGIndzUdIUbRv4TesGOpqtiA+jZydfUggow6ZS2naO6koZr43HptQnOGvu5ftQT/YDA0xmpn51dexISUeHvHlIGLsYOyRQpKdih8Xphn2oBiqGcuzc5axOUycbeLkIl6d2ogQvIYZ7xTtdzJkLqdHWCRRPa3EqF9UpC08oodLY8hUGVBUXmt44YdSOZkoTQ7Mu6QadMXDqts3fy3aMUaOuBI33yZjJWdpRwrSU9zG57fUMJTzoD2rg8DF2RHjZSlyMqUPuqjPVj3MmpmB9v6hEsjJJMm0s9YM4gApbSdNRzCpugZN93WDlTkjeK0HCTaJyVtjF9rR0sziQcvjsTdf0cbsY/SZRMPgDyJoVh6sbnbLJ5Ruch2lphRHw7O8ps9U1Z2wBE0GjvgES0dL56xo7ZF1VhXvVXwRazvmQqK/vVkUiERXgPqG98JswO1fWhUuIfeuVpE5FH+LeU605UX3uLQjR0wlEqHmArcOyQUvG/s4P0DAnXXB7JJmZHkwn1MUo/AjoOVkBlKBUhl9yLrLULYJIKrob4dk52NsdZs7EB1zanYlHcGSSPpGztB9G641RU7yrCftf+cpSnYamg7gGTOUkQ7KBUgdeVIurAyoscVDd3JxtrXdO4t7ODKtFOxKapNtON5x05g5rZELyhWCnPc8pBbarTiNlJiqAhZBzR4IchyayyjHckdTusl34rpV3apmKk2CzufoNhIQ14Iq7baTfGPHRLpbnXNjuoxZGPGKp+KMrLD9d59BJfSXUAlFWBsc4ZWYWUX52TGpbUiEW6kjs0XzFnYgZ239GD8CEAmUeT9/GMnl4zWiy72IGjbj7J9Wvi76WyumKoFaojg+kt/lR1RxhscUOOucq/46YuKmPEN3+zYJZODNpI0KTYl8VC303nITsC1AQp2zGLyaLnUq8AxzkwaLw1UkpE4d1cCcUe0LdDLl7v9fvuqpoUNh8HKDqSnCW3cTodVW+W6+sgOZCwryN1VDcVkCeWlSETL3KmpAOjcrYGJ5R1KFrYCj8nOoZtiU1Rb3TzoJTtawxfsG+WtmVrNweKqadFyytpmq4kSvLTvTHzqVH1bRx0Vm6LaqsZhL9kJohm+ItpzHba8SeNOu6gmj3s1PNFKeuqr4kjYsklV9+rrR9efEF5lQ5j1RVK2Q2un0U921PcK4PcV8FmD6k4OevihmRbNxdJiQy2NQ8LGqX5jr2MY7EDWO2pWbKpqK+2eX1lQOBA3FCvv+oiIU2arwIjcqZJW1fMu6l7HgZEU4AczcVHjM3V0cejsLNGm6BbFphi+MsHu6drJg390ReVIwmbWP8dYjW1/GqOYFiOyV/xmy+uXo2hv4yf+fDdfXiVO0dg5cZHrprxFseWqDTrEy1rXLBIfWWd2mk9pYofOJolAyz+DsH1cHxgvNaFSNr7PFAW3/PxwbBNgd7G8o9bRUYjyHn6NbUY+Dz5vnzbKCltnpzFztz9p7MSH4azG0HwfgY7lEI4u8hzfgWgTJ10r14fmU5r/u2oMaCmhRQ1H5rFhOttvs8Vikb3M36aB3pMP4sV3bH6e1HoJQhl9/N5tP7PsdfV89/aVssbtIvraiRHaZasdnQA6nFyi5ZRmdhp3JrkOtf/KGGdRxIuN8Q3XIs13bPm5Poay+j+3WOsmhH/4v6t+AHp2fEbPjs/o2fEZPTs+o2fHZ/Ts+IyeHZ/Rs+MzenZ8Rs+Oz+jZ8Rk9Oz6jZ8dn9Oz4jJ4dn9Gz4zN6dnxGz47P6NnxGT07PoO+TayvXvQEi+Yt/1cP8+1rXuFnk9OjR48ePf4WLC9cv278S8MOhj8M46r1f/y3n6MT/gcVX1zzgtCfEgAAAABJRU5ErkJggg==;" vertex="1" parent="1">
          <mxGeometry x="1220" y="57.75999999999999" width="143" height="42.24" as="geometry" />
        </mxCell>
        <mxCell id="A79HWYQ3Ffc1rzO4Q38f-32" style="edgeStyle=orthogonalEdgeStyle;rounded=0;orthogonalLoop=1;jettySize=auto;html=1;exitX=0.5;exitY=0;exitDx=0;exitDy=0;exitPerimeter=0;entryX=0;entryY=0.5;entryDx=0;entryDy=0;" edge="1" parent="1" source="A79HWYQ3Ffc1rzO4Q38f-21" target="A79HWYQ3Ffc1rzO4Q38f-19">
          <mxGeometry relative="1" as="geometry" />
        </mxCell>
        <mxCell id="A79HWYQ3Ffc1rzO4Q38f-25" value="Amazon Aurora&lt;div&gt;Serverless&lt;/div&gt;&lt;div&gt;&lt;br&gt;&lt;/div&gt;" style="sketch=0;points=[[0,0,0],[0.25,0,0],[0.5,0,0],[0.75,0,0],[1,0,0],[0,1,0],[0.25,1,0],[0.5,1,0],[0.75,1,0],[1,1,0],[0,0.25,0],[0,0.5,0],[0,0.75,0],[1,0.25,0],[1,0.5,0],[1,0.75,0]];outlineConnect=0;fontColor=#232F3E;fillColor=#C925D1;strokeColor=#ffffff;dashed=0;verticalLabelPosition=bottom;verticalAlign=top;align=center;html=1;fontSize=12;fontStyle=0;aspect=fixed;shape=mxgraph.aws4.resourceIcon;resIcon=mxgraph.aws4.aurora;" vertex="1" parent="1">
          <mxGeometry x="1427" y="606" width="78" height="78" as="geometry" />
        </mxCell>
        <mxCell id="A79HWYQ3Ffc1rzO4Q38f-27" style="edgeStyle=orthogonalEdgeStyle;rounded=0;orthogonalLoop=1;jettySize=auto;html=1;exitX=1;exitY=0.5;exitDx=0;exitDy=0;entryX=0;entryY=0.5;entryDx=0;entryDy=0;entryPerimeter=0;" edge="1" parent="1" source="A79HWYQ3Ffc1rzO4Q38f-24" target="A79HWYQ3Ffc1rzO4Q38f-13">
          <mxGeometry relative="1" as="geometry" />
        </mxCell>
        <mxCell id="A79HWYQ3Ffc1rzO4Q38f-28" style="edgeStyle=orthogonalEdgeStyle;rounded=0;orthogonalLoop=1;jettySize=auto;html=1;exitX=1;exitY=0.5;exitDx=0;exitDy=0;exitPerimeter=0;entryX=0;entryY=0.5;entryDx=0;entryDy=0;entryPerimeter=0;" edge="1" parent="1" source="A79HWYQ3Ffc1rzO4Q38f-13" target="A79HWYQ3Ffc1rzO4Q38f-20">
          <mxGeometry relative="1" as="geometry" />
        </mxCell>
        <mxCell id="A79HWYQ3Ffc1rzO4Q38f-21" value="API Gateway" style="sketch=0;points=[[0,0,0],[0.25,0,0],[0.5,0,0],[0.75,0,0],[1,0,0],[0,1,0],[0.25,1,0],[0.5,1,0],[0.75,1,0],[1,1,0],[0,0.25,0],[0,0.5,0],[0,0.75,0],[1,0.25,0],[1,0.5,0],[1,0.75,0]];outlineConnect=0;fontColor=#232F3E;fillColor=#E7157B;strokeColor=#ffffff;dashed=0;verticalLabelPosition=bottom;verticalAlign=top;align=center;html=1;fontSize=12;fontStyle=0;aspect=fixed;shape=mxgraph.aws4.resourceIcon;resIcon=mxgraph.aws4.api_gateway;" vertex="1" parent="1">
          <mxGeometry x="921" y="200" width="78" height="78" as="geometry" />
        </mxCell>
        <mxCell id="A79HWYQ3Ffc1rzO4Q38f-33" style="edgeStyle=orthogonalEdgeStyle;rounded=0;orthogonalLoop=1;jettySize=auto;html=1;exitX=0.5;exitY=0;exitDx=0;exitDy=0;" edge="1" parent="1" source="A79HWYQ3Ffc1rzO4Q38f-34" target="A79HWYQ3Ffc1rzO4Q38f-21">
          <mxGeometry relative="1" as="geometry" />
        </mxCell>
        <mxCell id="A79HWYQ3Ffc1rzO4Q38f-35" value="" style="edgeStyle=orthogonalEdgeStyle;rounded=0;orthogonalLoop=1;jettySize=auto;html=1;exitX=0.5;exitY=0;exitDx=0;exitDy=0;" edge="1" parent="1" source="A79HWYQ3Ffc1rzO4Q38f-24" target="A79HWYQ3Ffc1rzO4Q38f-34">
          <mxGeometry relative="1" as="geometry">
            <mxPoint x="960" y="490" as="sourcePoint" />
            <mxPoint x="960" y="338" as="targetPoint" />
          </mxGeometry>
        </mxCell>
        <mxCell id="A79HWYQ3Ffc1rzO4Q38f-34" value="Lambda" style="outlineConnect=0;dashed=0;verticalLabelPosition=bottom;verticalAlign=top;align=center;html=1;shape=mxgraph.aws3.lambda_function;fillColor=#F58534;gradientColor=none;" vertex="1" parent="1">
          <mxGeometry x="932.75" y="390" width="54.5" height="52" as="geometry" />
        </mxCell>
        <mxCell id="A79HWYQ3Ffc1rzO4Q38f-40" style="edgeStyle=orthogonalEdgeStyle;rounded=0;orthogonalLoop=1;jettySize=auto;html=1;entryX=0.5;entryY=1;entryDx=0;entryDy=0;" edge="1" parent="1" target="A79HWYQ3Ffc1rzO4Q38f-24">
          <mxGeometry relative="1" as="geometry">
            <mxPoint x="400" y="970" as="sourcePoint" />
          </mxGeometry>
        </mxCell>
        <mxCell id="A79HWYQ3Ffc1rzO4Q38f-42" value="&lt;font style=&quot;font-size: 24px;&quot;&gt;Build/Deploy&lt;/font&gt;" style="edgeLabel;html=1;align=center;verticalAlign=middle;resizable=0;points=[];" vertex="1" connectable="0" parent="A79HWYQ3Ffc1rzO4Q38f-40">
          <mxGeometry x="0.7271" y="1" relative="1" as="geometry">
            <mxPoint x="-119" y="148" as="offset" />
          </mxGeometry>
        </mxCell>
        <mxCell id="A79HWYQ3Ffc1rzO4Q38f-48" value="Availability zone" style="sketch=0;outlineConnect=0;gradientColor=none;html=1;whiteSpace=wrap;fontSize=12;fontStyle=0;shape=mxgraph.aws4.group;grIcon=mxgraph.aws4.group_availability_zone;strokeColor=#545B64;fillColor=none;verticalAlign=top;align=left;spacingLeft=30;fontColor=#545B64;dashed=1;" vertex="1" parent="1">
          <mxGeometry x="570" y="350" width="1000" height="560" as="geometry" />
        </mxCell>
        <mxCell id="A79HWYQ3Ffc1rzO4Q38f-39" value="Developer" style="shape=image;html=1;verticalAlign=top;verticalLabelPosition=bottom;labelBackgroundColor=#ffffff;imageAspect=0;aspect=fixed;image=https://cdn4.iconfinder.com/data/icons/online-marketing-hand-drawn-vol-2/52/development__web__code__online__coding__developer__service-128.png" vertex="1" parent="1">
          <mxGeometry x="270" y="920" width="128" height="128" as="geometry" />
        </mxCell>
        <mxCell id="A79HWYQ3Ffc1rzO4Q38f-15" value="Cognito" style="sketch=0;points=[[0,0,0],[0.25,0,0],[0.5,0,0],[0.75,0,0],[1,0,0],[0,1,0],[0.25,1,0],[0.5,1,0],[0.75,1,0],[1,1,0],[0,0.25,0],[0,0.5,0],[0,0.75,0],[1,0.25,0],[1,0.5,0],[1,0.75,0]];outlineConnect=0;fontColor=#232F3E;fillColor=#DD344C;strokeColor=#ffffff;dashed=0;verticalLabelPosition=bottom;verticalAlign=top;align=center;html=1;fontSize=12;fontStyle=0;aspect=fixed;shape=mxgraph.aws4.resourceIcon;resIcon=mxgraph.aws4.cognito;" vertex="1" parent="1">
          <mxGeometry x="460" y="276" width="78" height="78" as="geometry" />
        </mxCell>
        <mxCell id="A79HWYQ3Ffc1rzO4Q38f-9" value="" style="endArrow=classic;html=1;rounded=0;entryX=0;entryY=0.5;entryDx=0;entryDy=0;entryPerimeter=0;" edge="1" parent="1" target="A79HWYQ3Ffc1rzO4Q38f-14">
          <mxGeometry width="50" height="50" relative="1" as="geometry">
            <mxPoint x="370" y="534.17" as="sourcePoint" />
            <mxPoint x="560" y="534.8556521739131" as="targetPoint" />
          </mxGeometry>
        </mxCell>
      </root>
    </mxGraphModel>
  </diagram>
</mxfile>
